<svg width="123" height="32" viewBox="0 0 123 32" fill="none" xmlns="http://www.w3.org/2000/svg">
<path d="M52.7 11.047L49.488 19H48.1515L44.9395 11.047H46.1275C46.2558 11.047 46.3603 11.0782 46.441 11.1405C46.5217 11.2028 46.5822 11.2835 46.6225 11.3825L48.498 16.2335C48.5603 16.3912 48.619 16.5653 48.674 16.756C48.7327 16.943 48.7877 17.1392 48.839 17.3445C48.883 17.1392 48.9307 16.943 48.982 16.756C49.0333 16.5653 49.0902 16.3912 49.1525 16.2335L51.017 11.3825C51.0463 11.2982 51.1032 11.2212 51.1875 11.1515C51.2755 11.0818 51.3818 11.047 51.5065 11.047H52.7ZM54.7167 13.357V19H53.3527V13.357H54.7167ZM54.9037 11.7125C54.9037 11.8298 54.8799 11.9398 54.8322 12.0425C54.7845 12.1452 54.7204 12.235 54.6397 12.312C54.5627 12.389 54.471 12.4513 54.3647 12.499C54.2584 12.543 54.1447 12.565 54.0237 12.565C53.9064 12.565 53.7945 12.543 53.6882 12.499C53.5855 12.4513 53.4957 12.389 53.4187 12.312C53.3417 12.235 53.2794 12.1452 53.2317 12.0425C53.1877 11.9398 53.1657 11.8298 53.1657 11.7125C53.1657 11.5915 53.1877 11.4778 53.2317 11.3715C53.2794 11.2652 53.3417 11.1735 53.4187 11.0965C53.4957 11.0195 53.5855 10.959 53.6882 10.915C53.7945 10.8673 53.9064 10.8435 54.0237 10.8435C54.1447 10.8435 54.2584 10.8673 54.3647 10.915C54.471 10.959 54.5627 11.0195 54.6397 11.0965C54.7204 11.1735 54.7845 11.2652 54.8322 11.3715C54.8799 11.4778 54.9037 11.5915 54.9037 11.7125ZM57.4767 10.827V19H56.1182V10.827H57.4767ZM60.2052 10.827V19H58.8467V10.827H60.2052ZM64.5397 16.591C64.1474 16.6093 63.8174 16.6442 63.5497 16.6955C63.282 16.7432 63.0675 16.8055 62.9062 16.8825C62.7449 16.9595 62.6294 17.0493 62.5597 17.152C62.49 17.2547 62.4552 17.3665 62.4552 17.4875C62.4552 17.7258 62.5249 17.8963 62.6642 17.999C62.8072 18.1017 62.9924 18.153 63.2197 18.153C63.4984 18.153 63.7385 18.1035 63.9402 18.0045C64.1455 17.9018 64.3454 17.7478 64.5397 17.5425V16.591ZM61.4267 14.1435C62.0757 13.5495 62.8567 13.2525 63.7697 13.2525C64.0997 13.2525 64.3949 13.3075 64.6552 13.4175C64.9155 13.5238 65.1355 13.6742 65.3152 13.8685C65.4949 14.0592 65.6305 14.2883 65.7222 14.556C65.8175 14.8237 65.8652 15.117 65.8652 15.436V19H65.2492C65.1209 19 65.0219 18.9817 64.9522 18.945C64.8825 18.9047 64.8275 18.8258 64.7872 18.7085L64.6662 18.3015C64.5232 18.4298 64.3839 18.5435 64.2482 18.6425C64.1125 18.7378 63.9714 18.8185 63.8247 18.8845C63.678 18.9505 63.5204 19 63.3517 19.033C63.1867 19.0697 63.0034 19.088 62.8017 19.088C62.5634 19.088 62.3434 19.0568 62.1417 18.9945C61.94 18.9285 61.7659 18.8313 61.6192 18.703C61.4725 18.5747 61.3589 18.4152 61.2782 18.2245C61.1975 18.0338 61.1572 17.812 61.1572 17.559C61.1572 17.416 61.181 17.2748 61.2287 17.1355C61.2764 16.9925 61.3534 16.8568 61.4597 16.7285C61.5697 16.6002 61.7109 16.4792 61.8832 16.3655C62.0555 16.2518 62.2664 16.1528 62.5157 16.0685C62.7687 15.9842 63.062 15.9163 63.3957 15.865C63.7294 15.81 64.1107 15.777 64.5397 15.766V15.436C64.5397 15.0583 64.459 14.7797 64.2977 14.6C64.1364 14.4167 63.9035 14.325 63.5992 14.325C63.3792 14.325 63.1959 14.3507 63.0492 14.402C62.9062 14.4533 62.7797 14.512 62.6697 14.578C62.5597 14.6403 62.4589 14.6972 62.3672 14.7485C62.2792 14.7998 62.1802 14.8255 62.0702 14.8255C61.9749 14.8255 61.8942 14.8017 61.8282 14.754C61.7622 14.7027 61.709 14.644 61.6687 14.578L61.4267 14.1435ZM75.2559 12.2625H72.8579V19H71.3784V12.2625H68.9804V11.047H75.2559V12.2625ZM76.2572 14.336C76.4332 13.9987 76.6422 13.7347 76.8842 13.544C77.1262 13.3497 77.4122 13.2525 77.7422 13.2525C78.0025 13.2525 78.2115 13.3093 78.3692 13.423L78.2812 14.4405C78.2629 14.5065 78.2354 14.5542 78.1987 14.5835C78.1657 14.6092 78.1199 14.622 78.0612 14.622C78.0062 14.622 77.9237 14.6128 77.8137 14.5945C77.7074 14.5762 77.6029 14.567 77.5002 14.567C77.3499 14.567 77.216 14.589 77.0987 14.633C76.9814 14.677 76.875 14.7412 76.7797 14.8255C76.688 14.9062 76.6055 15.0052 76.5322 15.1225C76.4625 15.2398 76.3965 15.3737 76.3342 15.524V19H74.9757V13.357H75.7732C75.9125 13.357 76.0097 13.3827 76.0647 13.434C76.1197 13.4817 76.1564 13.5697 76.1747 13.698L76.2572 14.336ZM81.985 16.591C81.5927 16.6093 81.2627 16.6442 80.995 16.6955C80.7273 16.7432 80.5128 16.8055 80.3515 16.8825C80.1902 16.9595 80.0747 17.0493 80.005 17.152C79.9353 17.2547 79.9005 17.3665 79.9005 17.4875C79.9005 17.7258 79.9702 17.8963 80.1095 17.999C80.2525 18.1017 80.4377 18.153 80.665 18.153C80.9437 18.153 81.1838 18.1035 81.3855 18.0045C81.5908 17.9018 81.7907 17.7478 81.985 17.5425V16.591ZM78.872 14.1435C79.521 13.5495 80.302 13.2525 81.215 13.2525C81.545 13.2525 81.8402 13.3075 82.1005 13.4175C82.3608 13.5238 82.5808 13.6742 82.7605 13.8685C82.9402 14.0592 83.0758 14.2883 83.1675 14.556C83.2628 14.8237 83.3105 15.117 83.3105 15.436V19H82.6945C82.5662 19 82.4672 18.9817 82.3975 18.945C82.3278 18.9047 82.2728 18.8258 82.2325 18.7085L82.1115 18.3015C81.9685 18.4298 81.8292 18.5435 81.6935 18.6425C81.5578 18.7378 81.4167 18.8185 81.27 18.8845C81.1233 18.9505 80.9657 19 80.797 19.033C80.632 19.0697 80.4487 19.088 80.247 19.088C80.0087 19.088 79.7887 19.0568 79.587 18.9945C79.3853 18.9285 79.2112 18.8313 79.0645 18.703C78.9178 18.5747 78.8042 18.4152 78.7235 18.2245C78.6428 18.0338 78.6025 17.812 78.6025 17.559C78.6025 17.416 78.6263 17.2748 78.674 17.1355C78.7217 16.9925 78.7987 16.8568 78.905 16.7285C79.015 16.6002 79.1562 16.4792 79.3285 16.3655C79.5008 16.2518 79.7117 16.1528 79.961 16.0685C80.214 15.9842 80.5073 15.9163 80.841 15.865C81.1747 15.81 81.556 15.777 81.985 15.766V15.436C81.985 15.0583 81.9043 14.7797 81.743 14.6C81.5817 14.4167 81.3488 14.325 81.0445 14.325C80.8245 14.325 80.6412 14.3507 80.4945 14.402C80.3515 14.4533 80.225 14.512 80.115 14.578C80.005 14.6403 79.9042 14.6972 79.8125 14.7485C79.7245 14.7998 79.6255 14.8255 79.5155 14.8255C79.4202 14.8255 79.3395 14.8017 79.2735 14.754C79.2075 14.7027 79.1543 14.644 79.114 14.578L78.872 14.1435ZM84.5899 19V13.357H85.4204C85.5964 13.357 85.7119 13.4395 85.7669 13.6045L85.8549 14.0225C85.9539 13.9125 86.0566 13.8117 86.1629 13.72C86.2729 13.6283 86.3884 13.5495 86.5094 13.4835C86.6341 13.4175 86.7661 13.3662 86.9054 13.3295C87.0484 13.2892 87.2043 13.269 87.3729 13.269C87.7286 13.269 88.0201 13.3662 88.2474 13.5605C88.4784 13.7512 88.6508 14.006 88.7644 14.325C88.8524 14.138 88.9624 13.9785 89.0944 13.8465C89.2264 13.7108 89.3713 13.6008 89.5289 13.5165C89.6866 13.4322 89.8534 13.3698 90.0294 13.3295C90.2091 13.2892 90.3888 13.269 90.5684 13.269C90.8801 13.269 91.1569 13.3167 91.3989 13.412C91.6409 13.5073 91.8444 13.6467 92.0094 13.83C92.1744 14.0133 92.2991 14.237 92.3834 14.501C92.4714 14.765 92.5154 15.0675 92.5154 15.4085V19H91.1569V15.4085C91.1569 15.0492 91.0781 14.7797 90.9204 14.6C90.7628 14.4167 90.5318 14.325 90.2274 14.325C90.0881 14.325 89.9579 14.3488 89.8369 14.3965C89.7196 14.4442 89.6151 14.5138 89.5234 14.6055C89.4354 14.6935 89.3658 14.8053 89.3144 14.941C89.2631 15.0767 89.2374 15.2325 89.2374 15.4085V19H87.8734V15.4085C87.8734 15.0308 87.7964 14.7558 87.6424 14.5835C87.4921 14.4112 87.2703 14.325 86.9769 14.325C86.7789 14.325 86.5938 14.3745 86.4214 14.4735C86.2528 14.5688 86.0951 14.7008 85.9484 14.8695V19H84.5899ZM96.3037 13.269C96.7217 13.269 97.1012 13.3368 97.4422 13.4725C97.7869 13.6082 98.0802 13.8007 98.3222 14.05C98.5679 14.2993 98.7567 14.6037 98.8887 14.963C99.0207 15.3223 99.0867 15.7238 99.0867 16.1675C99.0867 16.6148 99.0207 17.0182 98.8887 17.3775C98.7567 17.7368 98.5679 18.043 98.3222 18.296C98.0802 18.549 97.7869 18.7433 97.4422 18.879C97.1012 19.0147 96.7217 19.0825 96.3037 19.0825C95.8821 19.0825 95.4989 19.0147 95.1542 18.879C94.8096 18.7433 94.5144 18.549 94.2687 18.296C94.0267 18.043 93.8379 17.7368 93.7022 17.3775C93.5702 17.0182 93.5042 16.6148 93.5042 16.1675C93.5042 15.7238 93.5702 15.3223 93.7022 14.963C93.8379 14.6037 94.0267 14.2993 94.2687 14.05C94.5144 13.8007 94.8096 13.6082 95.1542 13.4725C95.4989 13.3368 95.8821 13.269 96.3037 13.269ZM96.3037 18.0375C96.7731 18.0375 97.1196 17.8798 97.3432 17.5645C97.5706 17.2492 97.6842 16.7872 97.6842 16.1785C97.6842 15.5698 97.5706 15.106 97.3432 14.787C97.1196 14.468 96.7731 14.3085 96.3037 14.3085C95.8271 14.3085 95.4732 14.4698 95.2422 14.7925C95.0149 15.1115 94.9012 15.5735 94.9012 16.1785C94.9012 16.7835 95.0149 17.2455 95.2422 17.5645C95.4732 17.8798 95.8271 18.0375 96.3037 18.0375ZM101.394 14.05C101.507 13.9363 101.626 13.8318 101.751 13.7365C101.879 13.6375 102.013 13.555 102.153 13.489C102.296 13.4193 102.448 13.3662 102.609 13.3295C102.77 13.2892 102.946 13.269 103.137 13.269C103.445 13.269 103.718 13.3222 103.957 13.4285C104.195 13.5312 104.393 13.6778 104.551 13.8685C104.712 14.0555 104.833 14.281 104.914 14.545C104.998 14.8053 105.04 15.0932 105.04 15.4085V19H103.682V15.4085C103.682 15.0638 103.603 14.798 103.445 14.611C103.287 14.4203 103.047 14.325 102.725 14.325C102.49 14.325 102.27 14.3782 102.065 14.4845C101.859 14.5908 101.665 14.7357 101.482 14.919V19H100.123V13.357H100.954C101.13 13.357 101.245 13.4395 101.3 13.6045L101.394 14.05ZM108.138 19.088C107.647 19.088 107.269 18.9505 107.005 18.6755C106.745 18.3968 106.614 18.0137 106.614 17.526V14.3745H106.037C105.964 14.3745 105.901 14.3507 105.85 14.303C105.799 14.2553 105.773 14.1838 105.773 14.0885V13.5495L106.68 13.401L106.966 11.861C106.985 11.7877 107.02 11.7308 107.071 11.6905C107.122 11.6502 107.188 11.63 107.269 11.63H107.973V13.4065H109.48V14.3745H107.973V17.4325C107.973 17.6085 108.015 17.746 108.099 17.845C108.187 17.944 108.307 17.9935 108.457 17.9935C108.541 17.9935 108.611 17.9843 108.666 17.966C108.725 17.944 108.774 17.922 108.814 17.9C108.858 17.878 108.897 17.8578 108.93 17.8395C108.963 17.8175 108.996 17.8065 109.029 17.8065C109.069 17.8065 109.102 17.8175 109.128 17.8395C109.154 17.8578 109.181 17.8872 109.21 17.9275L109.617 18.5875C109.419 18.7525 109.192 18.8772 108.935 18.9615C108.679 19.0458 108.413 19.088 108.138 19.088ZM112.804 13.269C113.222 13.269 113.601 13.3368 113.942 13.4725C114.287 13.6082 114.58 13.8007 114.822 14.05C115.068 14.2993 115.257 14.6037 115.389 14.963C115.521 15.3223 115.587 15.7238 115.587 16.1675C115.587 16.6148 115.521 17.0182 115.389 17.3775C115.257 17.7368 115.068 18.043 114.822 18.296C114.58 18.549 114.287 18.7433 113.942 18.879C113.601 19.0147 113.222 19.0825 112.804 19.0825C112.382 19.0825 111.999 19.0147 111.654 18.879C111.31 18.7433 111.014 18.549 110.769 18.296C110.527 18.043 110.338 17.7368 110.202 17.3775C110.07 17.0182 110.004 16.6148 110.004 16.1675C110.004 15.7238 110.07 15.3223 110.202 14.963C110.338 14.6037 110.527 14.2993 110.769 14.05C111.014 13.8007 111.31 13.6082 111.654 13.4725C111.999 13.3368 112.382 13.269 112.804 13.269ZM112.804 18.0375C113.273 18.0375 113.62 17.8798 113.843 17.5645C114.071 17.2492 114.184 16.7872 114.184 16.1785C114.184 15.5698 114.071 15.106 113.843 14.787C113.62 14.468 113.273 14.3085 112.804 14.3085C112.327 14.3085 111.973 14.4698 111.742 14.7925C111.515 15.1115 111.401 15.5735 111.401 16.1785C111.401 16.7835 111.515 17.2455 111.742 17.5645C111.973 17.8798 112.327 18.0375 112.804 18.0375Z" fill="white"/>
<path fill-rule="evenodd" clip-rule="evenodd" d="M15.1914 3.23659C15.6843 2.92114 16.3156 2.92114 16.8085 3.23659L29.3085 11.2366C30.0063 11.6832 30.2099 12.6108 29.7633 13.3086C29.3168 14.0063 28.3891 14.21 27.6914 13.7634L26.4999 13.0009V25C26.4999 27.2091 24.7091 29 22.4999 29H9.49994C7.2908 29 5.49994 27.2091 5.49994 25V13.0009L4.30852 13.7634C3.61076 14.21 2.6831 14.0063 2.23653 13.3086C1.78997 12.6108 1.9936 11.6832 2.69136 11.2366L15.1914 3.23659ZM10.9999 17.75C10.9999 18.4891 11.2915 19.1601 11.766 19.6543L15.2836 23.2647C15.6761 23.6676 16.3237 23.6676 16.7162 23.2646L20.1628 19.7257C20.679 19.2258 20.9999 18.5254 20.9999 17.75C20.9999 16.2312 19.7687 15 18.2499 15C17.3199 15 16.4976 16.0242 15.9999 16.731C15.5023 16.0242 14.68 15 13.7499 15C12.2312 15 10.9999 16.2312 10.9999 17.75Z" fill="red"/>
</svg>
